<?xml version="1.0" standalone="no"?>
<!DOCTYPE svg PUBLIC "-//W3C//DTD SVG 20010904//EN"
 "http://www.w3.org/TR/2001/REC-SVG-20010904/DTD/svg10.dtd">
<svg version="1.0" xmlns="http://www.w3.org/2000/svg"
 width="256.000000pt" height="256.000000pt" viewBox="0 0 256.000000 256.000000"
 preserveAspectRatio="xMidYMid meet">
<metadata>
Created by potrace 1.16, written by Peter Selinger 2001-2019
</metadata>
<g transform="translate(0.000000,256.000000) scale(0.100000,-0.100000)"
fill="#000000" stroke="none">
<path d="M406 2390 c-62 -19 -83 -64 -71 -148 6 -46 16 -57 471 -512 255 -256
464 -470 464 -475 0 -5 -209 -219 -464 -475 -486 -488 -476 -476 -476 -562 0
-36 23 -83 47 -94 29 -14 855 -17 921 -4 l57 12 522 521 c517 518 522 522 529
570 13 94 19 88 -533 639 -489 487 -510 507 -562 522 -46 14 -119 16 -465 15
-226 0 -424 -5 -440 -9z m1141 -332 c145 -145 263 -266 263 -270 0 -5 -7 -8
-15 -8 -18 0 -19 -14 -5 -41 10 -18 10 -19 -24 -2 -32 15 -39 15 -98 -2 -74
-20 -259 -106 -371 -172 l-79 -46 -121 119 c-67 65 -250 246 -407 401 l-285
283 440 0 440 0 262 -262z m-597 -1284 c-278 -278 -514 -510 -525 -516 -11 -5
212 222 495 506 283 284 519 516 525 516 5 0 -217 -228 -495 -506z"/>
</g>
</svg>
