<?xml version="1.0" encoding="utf-8"?>
<!-- Generator: Adobe Illustrator 21.1.0, SVG Export Plug-In . SVG Version: 6.00 Build 0)  -->
<svg version="1.1" id="Layer_1" xmlns="http://www.w3.org/2000/svg" xmlns:xlink="http://www.w3.org/1999/xlink" x="0px" y="0px"
	 width="873.5px" height="279.6px" viewBox="0 0 873.5 279.6" style="enable-background:new 0 0 873.5 279.6;" xml:space="preserve"
	>
<style type="text/css">
	.st0{fill:url(#SVGID_1_);}
	.st1{fill:url(#SVGID_2_);}
	.st2{fill:#FFFFFF;}
	.st3{opacity:0.8;}
</style>
<g>
	<linearGradient id="SVGID_1_" gradientUnits="userSpaceOnUse" x1="701.8497" y1="124.0222" x2="754.2482" y2="124.0222">
		<stop  offset="0" style="stop-color:#72C499"/>
		<stop  offset="0.3963" style="stop-color:#73C494"/>
		<stop  offset="0.8788" style="stop-color:#75C385"/>
		<stop  offset="1" style="stop-color:#76C380"/>
	</linearGradient>
	<path class="st0" d="M731.9,124.1c0-2.9-0.8-5.6-2.2-7.9L754.2,95l-3.2-3.7l-24.6,21.2c-2.1-1.7-4.7-2.9-7.5-3.3V79.5
		c7.3-1,12.9-7.3,12.9-14.8c0-8.3-6.7-15-15-15.1c-8.3,0-15,6.7-15.1,15c0,7.4,5.3,13.6,12.4,14.9v29.8c-7,1.2-12.4,7.3-12.4,14.7
		c0,7.4,5.3,13.6,12.4,14.9v29.8c-7,1.2-12.4,7.3-12.4,14.7c0,8.3,6.7,15,15,15.1c8.3,0,15-6.7,15.1-15c0-7.6-5.6-13.9-12.9-14.9
		v-29.7C726.3,137.9,731.9,131.6,731.9,124.1z"/>
	<linearGradient id="SVGID_2_" gradientUnits="userSpaceOnUse" x1="736.7169" y1="124.0222" x2="801.6253" y2="124.0222">
		<stop  offset="0" style="stop-color:#72C499"/>
		<stop  offset="1" style="stop-color:#70B7E5"/>
	</linearGradient>
	<path class="st1" d="M786.7,109c-8.3,0-15,6.7-15.1,15c0,2.7,0.7,5.2,1.9,7.4l-12.3,10.7c-2-1.6-4.4-2.7-7-3.2v-29.8
		c7.1-1.2,12.5-7.3,12.6-14.8c0-8.3-6.7-15-15-15.1c-8.3,0-15,6.7-15.1,15c0,7.5,5.4,13.7,12.6,14.9v29.8
		c-7.1,1.2-12.5,7.3-12.6,14.8c0,8.3,6.7,15,15,15.1s15-6.7,15.1-15c0-3-0.8-5.7-2.3-8l12.2-10.5c2.6,2.4,6.1,3.8,9.9,3.8
		c8.3,0,15-6.7,15.1-15C801.7,115.8,795,109,786.7,109z"/>
</g>
<g>
	<g>
		<path class="st2" d="M109.4,87.2c6.9,0,13.1,2.2,17.4,5.9v7.1c-4.4-4.5-10.5-7.3-17.4-7.3c-13,0-22.6,9.8-22.6,23
			c0,13.2,9.6,23,22.6,23c6.9,0,13-2.7,17.4-7.3v7.1c-4.3,3.6-10.5,5.9-17.4,5.9c-15.9,0-28.8-12.1-28.8-28.7
			C80.6,99.3,93.4,87.2,109.4,87.2z"/>
		<path class="st2" d="M170.7,102.3c11.7,0,21.2,9,21.2,21.2c0,12.2-9.5,21.2-21.2,21.2c-11.7,0-21.2-9-21.2-21.2
			C149.5,111.3,159,102.3,170.7,102.3z M170.7,139.2c8.9,0,15.4-6.7,15.4-15.7c0-9-6.5-15.7-15.4-15.7s-15.4,6.7-15.4,15.7
			C155.4,132.5,161.9,139.2,170.7,139.2z"/>
		<path class="st2" d="M215.1,103.5h5.9v6.7c2.1-4.3,6.6-7.4,12.8-7.4c9.2,0,14.8,6.1,14.8,15.1v25.5h-5.9v-24.3
			c0-6.7-4-10.9-10.5-10.9c-6.7,0-11.3,4.5-11.3,11.3v23.9h-5.9V103.5z"/>
		<path class="st2" d="M273.2,103.5h5.9v6.7c2.1-4.3,6.6-7.4,12.8-7.4c9.2,0,14.8,6.1,14.8,15.1v25.5h-5.9v-24.3
			c0-6.7-4-10.9-10.5-10.9c-6.7,0-11.3,4.5-11.3,11.3v23.9h-5.9V103.5z"/>
		<path class="st2" d="M329.5,123.7c0-12.8,8.6-21.2,20-21.2c11.1,0,18.4,8.8,18.4,19.7c0,0,0,1.3-0.1,2.5h-32.4
			c0.3,8.9,5.8,14.6,14.4,14.6c7.9,0,12.6-3.3,14.7-5.7v6.7c-3.7,2.9-7.8,4.5-14.7,4.5c-12.1,0-20.2-8.2-20.2-20.8V123.7z
			 M361.6,119.6c0-6.3-5.4-11.7-12.1-11.7c-7.3,0-13.3,5.2-13.7,11.7H361.6z"/>
		<path class="st2" d="M410.5,102.3c5.4,0,10.2,1.8,13.4,4.5v6.7c-3.6-3.7-8.3-5.8-13.4-5.8c-8.9,0-15.4,6.7-15.4,15.7
			c0,9,6.5,15.7,15.4,15.7c5.1,0,9.8-2,13.4-5.8v6.7c-3.2,2.8-8,4.5-13.4,4.5c-11.7,0-21.2-9-21.2-21.2
			C389.2,111.3,398.7,102.3,410.5,102.3z"/>
		<path class="st2" d="M450,109h-5.1v-5.5h5.1V88.2h5.9v15.3h8.9v5.5h-8.9v34.5H450V109z"/>
		<path class="st2" d="M486.3,92.9c0-2.3,1.9-4,4-4s4,1.7,4,4s-1.9,4-4,4S486.3,95.2,486.3,92.9z M487.4,103.5h5.9v40h-5.9V103.5z"
			/>
		<path class="st2" d="M537.7,102.3c11.7,0,21.2,9,21.2,21.2c0,12.2-9.5,21.2-21.2,21.2s-21.2-9-21.2-21.2
			C516.5,111.3,526,102.3,537.7,102.3z M537.7,139.2c8.9,0,15.4-6.7,15.4-15.7c0-9-6.5-15.7-15.4-15.7c-8.9,0-15.4,6.7-15.4,15.7
			C522.3,132.5,528.8,139.2,537.7,139.2z"/>
		<path class="st2" d="M582.1,103.5h5.9v6.7c2.1-4.3,6.6-7.4,12.8-7.4c9.2,0,14.8,6.1,14.8,15.1v25.5h-5.9v-24.3
			c0-6.7-4-10.9-10.5-10.9c-6.7,0-11.3,4.5-11.3,11.3v23.9h-5.9V103.5z"/>
		<path class="st2" d="M637.9,132.8c3.7,4.2,8.2,6.2,13.8,6.2c5.4,0,8.1-2.5,8.1-5.6c0-4.4-3.3-6-9-8.9c-6.5-3.3-10.9-5.7-10.9-11.9
			s4.8-10.3,12.4-10.3c4,0,7.2,1.1,9.1,2.5v6c-2.3-1.8-5.3-3.1-8.6-3.1c-4.7,0-7.1,1.7-7.1,4.8c0,2.9,1.9,4,4.8,5.6
			c7.5,4.1,15.1,6.5,15.1,15.1c0,3.8-3.1,11-14,11c-5.6,0-10.3-1.6-13.8-4.8V132.8z"/>
	</g>
</g>
<g class="st3">
	<path class="st2" d="M155.7,178.3c5.2,0,9,2.9,10,5.9V179h2.5v25.2h-2.5v-5.2c-1.1,3-4.9,5.9-10,5.9c-7.1,0-12.7-5.7-12.7-13.3
		S148.6,178.3,155.7,178.3z M155.7,202.5c5.9,0,10.3-4.5,10.3-10.9s-4.5-10.9-10.3-10.9c-5.8,0-10.2,4.8-10.2,10.9
		C145.5,197.8,149.9,202.5,155.7,202.5z"/>
	<path class="st2" d="M194.8,179h2.5v4.8c1.2-3,3.7-5.2,8.8-5.2c5.8,0,9.7,3.9,9.7,10.1v15.6h-2.5v-15.1c0-5.1-3.1-8.2-7.8-8.2
		c-5.1,0-8.3,3.9-8.3,9.7v13.6h-2.5V179z"/>
	<path class="st2" d="M220.8,191.6c0-7.9,5.4-13.3,12.3-13.3c6.9,0,11.7,5.7,11.7,12.6c0,0,0,0.8-0.1,1.2h-21.5
		c0.1,6.1,4.2,10.4,10,10.4c4.7,0,8-2,9.5-3.9v3c-2.4,2.1-5.2,3.3-9.5,3.3c-7.2,0-12.4-5.3-12.4-13.1V191.6z M242.1,189.9
		c-0.1-5.2-4.1-9.2-9.1-9.2c-5.3,0-9.6,4-9.8,9.2H242.1z"/>
	<path class="st2" d="M261.9,178.3c7.4,0,13.3,5.7,13.3,13.3s-5.9,13.3-13.3,13.3c-7.4,0-13.3-5.7-13.3-13.3
		S254.5,178.3,261.9,178.3z M261.9,202.5c6.2,0,10.8-4.7,10.8-10.9s-4.6-10.9-10.8-10.9c-6.2,0-10.8,4.7-10.8,10.9
		S255.8,202.5,261.9,202.5z"/>
	<path class="st2" d="M291.8,169.3h2.8l-11.7,24.2h15.6v-8.2h2.6v19h-2.6v-8.3h-19.5L291.8,169.3z"/>
	<path class="st2" d="M308.2,179h2.5v28.7c0,5.7-3.2,6.8-6.4,6.8c-0.6,0-1.2,0-1.6-0.2V212c0.6,0.1,1.3,0.1,1.9,0.1
		c2.6,0,3.7-1.2,3.7-4.5V179z M307.6,172.2c0-1,0.8-1.8,1.8-1.8s1.8,0.8,1.8,1.8c0,1-0.9,1.8-1.8,1.8S307.6,173.2,307.6,172.2z"/>
	<path class="st2" d="M334,179h2.7l9,20.7l9.1-20.7h2.7l-11.8,26.5L334,179z"/>
	<path class="st2" d="M360.9,172.2c0-1,0.9-1.8,1.8-1.8c0.9,0,1.8,0.8,1.8,1.8c0,1-0.9,1.8-1.8,1.8
		C361.7,174,360.9,173.2,360.9,172.2z M361.4,179h2.5v25.2h-2.5V179z"/>
	<path class="st2" d="M370.1,179h2.5v5c1-3,3.6-5.5,8.6-5.5c0.3,0,0.8,0,1.2,0v2.6c-0.3,0-1-0.1-1.6-0.1c-5.5,0-8.2,4.3-8.2,9.3
		v13.8h-2.5V179z"/>
	<path class="st2" d="M389.1,181.3h-3.2V179h3.2v-9.7h2.5v9.7h5.9v2.3h-5.9v22.9h-2.5V181.3z"/>
	<path class="st2" d="M401.6,179h2.5v15.4c0,5.2,3.1,8,7.9,8s7.9-2.8,7.9-8V179h2.5v15.7c0,6.6-4.2,10.1-10.4,10.1
		c-6.2,0-10.4-3.5-10.4-10.1V179z"/>
	<path class="st2" d="M439.8,178.3c5.2,0,9,2.9,10,5.9V179h2.5v25.2h-2.5v-5.2c-1,3-4.9,5.9-10,5.9c-7.1,0-12.7-5.7-12.7-13.3
		S432.7,178.3,439.8,178.3z M439.8,202.5c5.9,0,10.3-4.5,10.3-10.9s-4.5-10.9-10.3-10.9c-5.8,0-10.2,4.8-10.2,10.9
		C429.6,197.8,434,202.5,439.8,202.5z"/>
	<path class="st2" d="M458.4,169.3h2.5v34.9h-2.5V169.3z"/>
	<path class="st2" d="M486.5,191.6c0-7.9,5.4-13.3,12.3-13.3c6.9,0,11.7,5.7,11.7,12.6c0,0,0,0.8-0.1,1.2H489
		c0.2,6.1,4.2,10.4,10,10.4c4.7,0,8-2,9.5-3.9v3c-2.3,2.1-5.2,3.3-9.5,3.3c-7.2,0-12.4-5.3-12.4-13.1V191.6z M507.9,189.9
		c0-5.2-4.1-9.2-9.1-9.2c-5.2,0-9.6,4-9.8,9.2H507.9z"/>
	<path class="st2" d="M512,179h2.7l9,20.7l9.1-20.7h2.7l-11.8,26.5L512,179z"/>
	<path class="st2" d="M536.7,191.6c0-7.9,5.4-13.3,12.3-13.3c6.9,0,11.7,5.7,11.7,12.6c0,0,0,0.8-0.1,1.2h-21.5
		c0.2,6.1,4.2,10.4,10,10.4c4.7,0,8-2,9.5-3.9v3c-2.3,2.1-5.2,3.3-9.5,3.3c-7.2,0-12.4-5.3-12.4-13.1V191.6z M558.1,189.9
		c0-5.2-4.1-9.2-9.1-9.2c-5.2,0-9.6,4-9.8,9.2H558.1z"/>
	<path class="st2" d="M565.8,179h2.5v4.8c1.2-3,3.7-5.2,8.8-5.2c5.8,0,9.7,3.9,9.7,10.1v15.6h-2.5v-15.1c0-5.1-3.1-8.2-7.8-8.2
		c-5.1,0-8.3,3.9-8.3,9.7v13.6h-2.5V179z"/>
	<path class="st2" d="M594.6,181.3h-3.2V179h3.2v-9.7h2.5v9.7h5.9v2.3h-5.9v22.9h-2.5V181.3z"/>
</g>
</svg>
